[Header]
FileType HTR
DataType HTRS
FileVersion 1
NumSegments 48
NumFrames 3
DataFrameRate 30
EulerRotationOrder ZYX
CalibrationUnits mm
RotationUnits Degrees
GlobalAxisofGravity Y
BoneLengthAxis Y
ScaleFactor 1.0
[SegmentNames&Hierarchy]
Wolf	GLOBAL
Becken	Wolf
Bauch	Becken
Bauch_001	Bauch
Brust	Bauch_001
Hals	Brust
Kopf_002	Hals
Kopf	Kopf_002
Unterkiefer	Kopf
Hals_fett	Unterkiefer
Maulunten	Unterkiefer
Mauloben	Kopf
MundW_L	Kopf
MundW_R	Kopf
Augen_con	Kopf
IK_Aug_R	Augen_con
IK_Aug_L	Augen_con
Aug_R	Kopf
aug_L	Kopf
Ohr_L	Kopf
Ohr_R	Kopf
Braun_O_L	Kopf
Braun_O_R	Kopf
aug_lied_O_L	Kopf
aug_lied_O_R	Kopf
aug_lied_U_L	Kopf
aug_lied_U_R	Kopf
Bauch_003	Brust
Schalterplatte_L	Bauch_003
Oberarm_L	Schalterplatte_L
Unterarm_L	Oberarm_L
Vorderpfote_L	Unterarm_L
Schalterplatte_R	Bauch_003
Oberarm_R	Schalterplatte_R
Unterarm_R	Oberarm_R
Vorderpfote_R	Unterarm_R
Schwanz	Becken
Schwanz_001	Schwanz
Schwanz_002	Schwanz_001
Schwanz_003	Schwanz_002
Oberschenkel_L	Becken
Unterschenkel_L	Oberschenkel_L
Pfote1_L	Unterschenkel_L
Pfote2_L	Pfote1_L
Oberschenkel_R	Becken
Unterschenkel_R	Oberschenkel_R
Pfote1_R	Unterschenkel_R
Pfote2_R	Pfote1_R
[BasePosition]
Wolf	0	0	0	0	0	0	1
Becken	0	0	0	0	0	0	1
Bauch	0	0	0	0	0	0	1
Bauch_001	0	0	0	0	0	0	1
Brust	0	0	0	0	0	0	1
Hals	0	0	0	0	0	0	1
Kopf_002	0	0	0	0	0	0	1
Kopf	0	0	0	0	0	0	1
Unterkiefer	0	0	0	0	0	0	1
Hals_fett	0	0	0	0	0	0	1
Maulunten	0	0	0	0	0	0	1
Mauloben	0	0	0	0	0	0	1
MundW_L	0	0	0	0	0	0	1
MundW_R	0	0	0	0	0	0	1
Augen_con	0	0	0	0	0	0	1
IK_Aug_R	0	0	0	0	0	0	1
IK_Aug_L	0	0	0	0	0	0	1
Aug_R	0	0	0	0	0	0	1
aug_L	0	0	0	0	0	0	1
Ohr_L	0	0	0	0	0	0	1
Ohr_R	0	0	0	0	0	0	1
Braun_O_L	0	0	0	0	0	0	1
Braun_O_R	0	0	0	0	0	0	1
aug_lied_O_L	0	0	0	0	0	0	1
aug_lied_O_R	0	0	0	0	0	0	1
aug_lied_U_L	0	0	0	0	0	0	1
aug_lied_U_R	0	0	0	0	0	0	1
Bauch_003	0	0	0	0	0	0	1
Schalterplatte_L	0	0	0	0	0	0	1
Oberarm_L	0	0	0	0	0	0	1
Unterarm_L	0	0	0	0	0	0	1
Vorderpfote_L	0	0	0	0	0	0	1
Schalterplatte_R	0	0	0	0	0	0	1
Oberarm_R	0	0	0	0	0	0	1
Unterarm_R	0	0	0	0	0	0	1
Vorderpfote_R	0	0	0	0	0	0	1
Schwanz	0	0	0	0	0	0	1
Schwanz_001	0	0	0	0	0	0	1
Schwanz_002	0	0	0	0	0	0	1
Schwanz_003	0	0	0	0	0	0	1
Oberschenkel_L	0	0	0	0	0	0	1
Unterschenkel_L	0	0	0	0	0	0	1
Pfote1_L	0	0	0	0	0	0	1
Pfote2_L	0	0	0	0	0	0	1
Oberschenkel_R	0	0	0	0	0	0	1
Unterschenkel_R	0	0	0	0	0	0	1
Pfote1_R	0	0	0	0	0	0	1
Pfote2_R	0	0	0	0	0	0	1
[Wolf]
19	0	0	0	-90	-0	0	1.0
20	0	0	0	-90	-0	0	1.0
21	0	0	0	-90	-0	0	1.0
[Becken]
19	0	0.5621799231	0.4939081669	1.30725503	169.3827515	90.46997833	1.0
20	0	0.5621799231	0.4780441225	1.488861084	169.3842621	90.53526306	1.0
21	0	0.5621799231	0.4621801078	1.647163033	169.3857574	90.59216309	1.0
[Bauch]
19	0.9404072165	7.335228958e-08	-0.3559131622	-9.70548399e-07	12.60522652	-8.885302805e-08	1.0
20	0.9404072165	7.335228958e-08	-0.3559131622	-9.70548399e-07	12.60522652	-8.885302805e-08	1.0
21	0.9404072165	7.335228958e-08	-0.3559131622	-9.70548399e-07	12.60522652	-8.885302805e-08	1.0
[Bauch_001]
19	1.081897616	8.323696221e-08	1.180524034e-08	-2.503413032e-09	2.360082865	-2.670307531e-08	1.0
20	1.081897616	8.323696221e-08	1.180524034e-08	-2.503413032e-09	2.360082865	-2.670307531e-08	1.0
21	1.081897616	8.323696221e-08	1.180524034e-08	-2.503413032e-09	2.360082865	-2.670307531e-08	1.0
[Brust]
19	1.069831252	8.440110832e-08	3.139576066e-08	5.110827715e-06	13.74504375	-3.549572648e-05	1.0
20	1.069831252	8.440110832e-08	3.139576066e-08	5.110827715e-06	13.10199928	-3.549572648e-05	1.0
21	1.069831252	8.440110832e-08	3.139576066e-08	5.110827715e-06	12.45895481	-3.549572648e-05	1.0
[Hals]
19	1.258022308	9.662471712e-08	0.6079561114	-4.810633527e-06	46.87745667	-2.341890877e-06	1.0
20	1.258022308	9.662471712e-08	0.6079561114	-4.810633527e-06	46.87745667	-2.341890877e-06	1.0
21	1.258022308	9.662471712e-08	0.6079561114	-4.810633527e-06	46.87745667	-2.341890877e-06	1.0
[Kopf_002]
19	1.752595186	3.012712114e-05	0.265181601	0.006653386634	-165.1497192	0.002557684667	1.0
20	1.752595186	3.012712114e-05	0.265181601	0.006653386634	-165.1497192	0.002557684667	1.0
21	1.752595186	3.012712114e-05	0.265181601	0.006653386634	-165.1497192	0.002557684667	1.0
[Kopf]
19	1.015782118	6.868503988e-08	-5.515175872e-08	0.0627148971	117.2630615	-0.03127388656	1.0
20	1.015782118	6.868503988e-08	-5.515175872e-08	0.064168185	118.5497055	-0.02998387627	1.0
21	1.015782118	6.868503988e-08	-5.515175872e-08	0.0656214729	119.8363495	-0.02869386412	1.0
[Unterkiefer]
19	0.6370447874	0.004552732222	0.4060618579	5.412721634	-68.3888092	-3.093543291	1.0
20	0.6370447874	0.004552732222	0.4060618579	5.412721634	-68.3888092	-3.093543291	1.0
21	0.6370447874	0.004552732222	0.4060618579	5.412721634	-68.3888092	-3.093543291	1.0
[Hals_fett]
19	0.2998305857	0.007747137919	0.1206372604	-5.071650982	-59.35961151	5.585564613	1.0
20	0.2998305857	0.007747137919	0.1206372604	-5.071650982	-59.35961151	5.585564613	1.0
21	0.2998305857	0.007747137919	0.1206372604	-5.071650982	-59.35961151	5.585564613	1.0
[Maulunten]
19	0.0831861794	-0.007747565862	-0.1206544712	-3.322209358	38.97271347	-0.8718761206	1.0
20	0.0831861794	-0.007747565862	-0.1206544712	-3.322209358	38.97271347	-0.8718761206	1.0
21	0.0831861794	-0.007747565862	-0.1206544712	-3.322209358	38.97271347	-0.8718761206	1.0
[Mauloben]
19	0.9101490974	0.0004056713078	0.4003697634	-0.1032672822	-28.7776947	0.03543138877	1.0
20	0.9101490974	0.0004056713078	0.4003697634	-0.1032672822	-28.7776947	0.03543138877	1.0
21	0.9101490974	0.0004056713078	0.4003697634	-0.1032672822	-28.7776947	0.03543138877	1.0
[MundW_L]
19	0.673060894	-0.3618555963	0.3751283586	-179.8370972	-17.94885063	24.713974	1.0
20	0.673060894	-0.3618555963	0.3751283586	-179.8370972	-17.94885063	24.713974	1.0
21	0.673060894	-0.3618555963	0.3751283586	-179.8370972	-17.94885063	24.713974	1.0
[MundW_R]
19	0.6732419133	0.3627035022	0.3739836514	179.665329	-18.02427101	-24.69083595	1.0
20	0.6732419133	0.3627035022	0.3739836514	179.665329	-18.02427101	-24.69083595	1.0
21	0.6732419133	0.3627035022	0.3739836514	179.665329	-18.02427101	-24.69083595	1.0
[Augen_con]
19	1.807373166	-0.0001604110003	0.183581531	0.0982221961	157.1545258	0.02385941334	1.0
20	1.807373166	-0.0001604110003	0.183581531	0.0982221961	157.1545258	0.02385941334	1.0
21	1.807373166	-0.0001604110003	0.183581531	0.0982221961	157.1545258	0.02385941334	1.0
[IK_Aug_R]
19	0.3461295962	0.2943200469	-1.071020961e-07	-0.4194760025	-4.963055134	165.6946411	1.0
20	0.3461295962	0.2943200469	-1.071020961e-07	-0.4194760025	-4.963055134	165.6946411	1.0
21	0.3461295962	0.2943200469	-1.071020961e-07	-0.4194760025	-4.963055134	165.6946411	1.0
[IK_Aug_L]
19	0.3461301029	-0.2943200171	-1.967418939e-07	0.4194771945	-4.963055134	-165.6946411	1.0
20	0.3461301029	-0.2943200171	-1.967418939e-07	0.4194771945	-4.963055134	-165.6946411	1.0
21	0.3461301029	-0.2943200171	-1.967418939e-07	0.4194771945	-4.963055134	-165.6946411	1.0
[Aug_R]
19	1.035154939	0.2207805216	-0.09605780989	176.004776	-17.29167175	12.85548782	1.0
20	1.035154939	0.2207805216	-0.09605780989	176.004776	-17.29167175	12.85548782	1.0
21	1.035154939	0.2207805216	-0.09605780989	176.004776	-17.29167175	12.85548782	1.0
[aug_L]
19	1.03504467	-0.2215988934	-0.09535907209	-176.1891022	-17.33180046	-12.83102131	1.0
20	1.03504467	-0.2215988934	-0.09535907209	-176.1891022	-17.33180046	-12.83102131	1.0
21	1.03504467	-0.2215988934	-0.09535907209	-176.1891022	-17.33180046	-12.83102131	1.0
[Ohr_L]
19	0.6407766938	-0.3659991026	-0.6893324852	-24.34923935	53.07765961	-15.02013397	1.0
20	0.6407766938	-0.3659991026	-0.6893324852	-24.34923935	53.07765961	-15.02013397	1.0
21	0.6407766938	-0.3659991026	-0.6893324852	-24.34923935	53.07765961	-15.02013397	1.0
[Ohr_R]
19	0.640958488	0.36349985	-0.690484941	24.05785561	53.12415695	14.75856686	1.0
20	0.640958488	0.36349985	-0.690484941	24.05785561	53.12415695	14.75856686	1.0
21	0.640958488	0.36349985	-0.690484941	24.05785561	53.12415695	14.75856686	1.0
[Braun_O_L]
19	0.9801894426	-0.3706049323	-0.3292509615	-143.317215	-34.69636154	52.39493942	1.0
20	0.9801894426	-0.3706049323	-0.3292509615	-143.317215	-34.69636154	52.39493942	1.0
21	0.9801894426	-0.3706049323	-0.3292509615	-143.317215	-34.69636154	52.39493942	1.0
[Braun_O_R]
19	0.9803640842	0.3690741956	-0.3304226995	143.1826782	-34.83971405	-52.34676361	1.0
20	0.9803640842	0.3690741956	-0.3304226995	143.1826782	-34.83971405	-52.34676361	1.0
21	0.9803640842	0.3690741956	-0.3304226995	143.1826782	-34.83971405	-52.34676361	1.0
[aug_lied_O_L]
19	1.038882375	-0.3271433413	-0.1608109176	-175.8613434	-20.15596771	60.31667709	1.0
20	1.038882375	-0.3271433413	-0.1608109176	-175.8613434	-20.15596771	60.31667709	1.0
21	1.038882375	-0.3271433413	-0.1608109176	-175.8613434	-20.15596771	60.31667709	1.0
[aug_lied_O_R]
19	1.039044976	0.326115787	-0.1618431658	175.7657928	-20.31324005	-60.31218338	1.0
20	1.039044976	0.326115787	-0.1618431658	175.7657928	-20.31324005	-60.31218338	1.0
21	1.039044976	0.326115787	-0.1618431658	175.7657928	-20.31324005	-60.31218338	1.0
[aug_lied_U_L]
19	1.02191329	-0.3312865198	-0.1338392347	-159.8099365	-28.7482872	60.17462158	1.0
20	1.02191329	-0.3312865198	-0.1338392347	-159.8099365	-28.7482872	60.17462158	1.0
21	1.02191329	-0.3312865198	-0.1338392347	-159.8099365	-28.7482872	60.17462158	1.0
[aug_lied_U_R]
19	1.022078872	0.3303525448	-0.1348842829	159.7071381	-28.90532303	-60.15359116	1.0
20	1.022078872	0.3303525448	-0.1348842829	159.7071381	-28.90532303	-60.15359116	1.0
21	1.022078872	0.3303525448	-0.1348842829	159.7071381	-28.90532303	-60.15359116	1.0
[Bauch_003]
19	1.276869178	9.429641068e-08	-0.6079563498	-3.842957085e-06	-137.6799469	1.008550771e-05	1.0
20	1.276869178	9.429641068e-08	-0.6079563498	-3.842957085e-06	-137.6799469	1.008550771e-05	1.0
21	1.276869178	9.429641068e-08	-0.6079563498	-3.842957085e-06	-137.6799469	1.008550771e-05	1.0
[Schalterplatte_L]
19	0.9806317091	-0.3933479786	0.09236183763	1.073256493	67.77656555	-25.2469368	1.0
20	1.011616945	-0.3960839212	0.113650769	0.819826901	68.10246277	-25.42999649	1.0
21	1.042602062	-0.3988199234	0.1349396855	0.4719635546	68.47590637	-25.7182579	1.0
[Oberarm_L]
19	1.418636799	1.443549991e-07	9.778887033e-08	-55.21666336	-60.14384079	65.95584106	1.0
20	1.418636799	1.443549991e-07	9.778887033e-08	-57.01890182	-60.89742661	68.27989197	1.0
21	1.418636799	1.443549991e-07	9.778887033e-08	-58.79803848	-61.56642914	70.5504303	1.0
[Unterarm_L]
19	2.028227329	8.847563748e-08	-3.725290298e-07	1.787017107	42.10922623	1.853878736	1.0
20	2.028227329	8.847563748e-08	-3.725290298e-07	2.128002167	43.23464584	2.237000465	1.0
21	2.028227329	8.847563748e-08	-3.725290298e-07	2.470073223	44.35449982	2.617920637	1.0
[Vorderpfote_L]
19	1.705947638	1.746229827e-07	-5.704351125e-08	-4.471587181	83.42912292	-3.493138552	1.0
20	1.705947638	1.746229827e-07	-5.704351125e-08	-4.382973671	84.37128448	-3.406753778	1.0
21	1.705947638	1.746229827e-07	-5.704351125e-08	-4.281137466	85.2859726	-3.30726409	1.0
[Schalterplatte_R]
19	0.9387713075	0.3823089004	-0.06640833616	102.9785004	78.22673035	134.6873016	1.0
20	0.9499096274	0.3823504448	-0.07949604094	104.0523453	78.08428192	135.6329956	1.0
21	0.9603715539	0.3823920786	-0.09258373827	102.2801437	78.36817932	133.7486572	1.0
[Oberarm_R]
19	1.418636322	-1.210719205e-07	-7.450580597e-08	81.93516541	-61.58263397	-96.66498566	1.0
20	1.418636322	-1.210719205e-07	-7.450580597e-08	77.43119812	-61.61771011	-91.26206207	1.0
21	1.418636322	-1.210719205e-07	-7.450580597e-08	72.8565979	-61.53926086	-85.78083038	1.0
[Unterarm_R]
19	2.028231859	1.676380634e-07	-3.608874977e-07	-2.576052666	66.20226288	-2.103623867	1.0
20	2.028231859	1.676380634e-07	-3.608874977e-07	-1.95068121	65.84505463	-1.376934052	1.0
21	2.028231859	1.676380634e-07	-3.608874977e-07	-1.427302957	65.3867569	-0.8409696817	1.0
[Vorderpfote_R]
19	1.705937624	7.799826562e-08	1.461012289e-07	-6.96247673	-14.74699593	8.425322533	1.0
20	1.705937624	7.799826562e-08	1.461012289e-07	-6.484627724	-13.45099258	8.024106979	1.0
21	1.705937624	7.799826562e-08	1.461012289e-07	-5.413962364	-8.530702591	6.869252205	1.0
[Schwanz]
19	-0.1224462837	-1.382431947e-08	0.07787308097	-2.220226997e-05	-117.1778641	2.181978562e-05	1.0
20	-0.1327172518	-1.382431947e-08	0.08362905681	-2.220226997e-05	-115.94944	2.181978562e-05	1.0
21	-0.1429882348	-1.382431947e-08	0.08938504755	-2.220226997e-05	-114.7210159	2.181978562e-05	1.0
[Schwanz_001]
19	0.9104328156	6.868503988e-08	7.788912626e-08	-2.408194405e-06	12.1207571	-5.75290926e-07	1.0
20	0.9104328156	6.868503988e-08	7.788912626e-08	-2.408194405e-06	10.44534683	-5.75290926e-07	1.0
21	0.9104328156	6.868503988e-08	7.788912626e-08	-2.408194405e-06	8.769937515	-5.75290926e-07	1.0
[Schwanz_002]
19	0.7855660319	5.704351125e-08	-1.185253495e-07	8.174235973e-07	-6.093066216	-1.362372615e-07	1.0
20	0.7855660319	5.704351125e-08	-1.185253495e-07	8.174235973e-07	-7.304420948	-1.362372615e-07	1.0
21	0.7855660319	5.704351125e-08	-1.185253495e-07	8.174235973e-07	-8.515775681	-1.362372615e-07	1.0
[Schwanz_003]
19	0.8350355029	6.286426668e-08	-2.072192729e-07	-2.187832479e-06	-3.305449486	1.867661581e-07	1.0
20	0.8350355029	6.286426668e-08	-2.072192729e-07	-2.187832479e-06	-2.664847136	1.867661581e-07	1.0
21	0.8350355029	6.286426668e-08	-2.072192729e-07	-2.187832479e-06	-2.024245024	1.867661581e-07	1.0
[Oberschenkel_L]
19	0.6359386444	-0.5836999416	-0.02924957871	-167.7226105	-131.5322571	173.7976837	1.0
20	0.6153258085	-0.5836999416	-0.0001918412745	-167.6702118	-131.2000732	173.7280579	1.0
21	0.5947129726	-0.5836999416	0.02886589617	-167.5506439	-130.4529724	173.5698395	1.0
[Unterschenkel_L]
19	1.686439037	6.984918599e-08	-6.053597446e-08	-36.81781769	-65.2277298	47.31990433	1.0
20	1.686439037	6.984918599e-08	-6.053597446e-08	-31.57663727	-61.76886368	42.02578735	1.0
21	1.686439037	6.984918599e-08	-6.053597446e-08	-27.06336403	-57.78424835	37.42774963	1.0
[Pfote1_L]
19	1.190900326	6.519258022e-08	1.396983862e-07	1.951566696	37.61112595	-6.454093933	1.0
20	1.190900326	6.519258022e-08	1.396983862e-07	1.956027269	37.54324341	-6.446741581	1.0
21	1.190900326	6.519258022e-08	1.396983862e-07	1.978788376	37.19796753	-6.409284115	1.0
[Pfote2_L]
19	0.9876257777	7.450580597e-08	-5.587935092e-08	-33.0067215	81.9069519	-39.81345367	1.0
20	0.9876257777	7.450580597e-08	-5.587935092e-08	-25.64745331	80.97026062	-32.46228027	1.0
21	0.9876257777	7.450580597e-08	-5.587935092e-08	-19.69248581	80.02108765	-26.51882744	1.0
[Oberschenkel_R]
19	0.4807457626	0.5837000012	0.127899915	-42.79835129	-81.57943726	38.3689003	1.0
20	0.4718205929	0.5837000012	0.1302464902	-49.63633728	-82.65187073	45.27153778	1.0
21	0.462895453	0.5837000012	0.1325930804	-58.40273285	-83.60741425	54.10271072	1.0
[Unterschenkel_R]
19	1.68644917	1.164153218e-07	2.793967901e-08	12.62973404	-40.09052277	-18.96762466	1.0
20	1.68644917	1.164153218e-07	2.793967901e-08	12.77957153	-41.06542969	-18.91742134	1.0
21	1.68644917	1.164153218e-07	2.793967901e-08	12.81780148	-41.60280609	-18.79487801	1.0
[Pfote1_R]
19	1.190900087	1.856824383e-07	4.190951941e-08	-2.076855421	29.64055061	6.265771389	1.0
20	1.190900087	1.856824383e-07	4.190951941e-08	-2.021719694	28.06250191	6.379841805	1.0
21	1.190900087	1.856824383e-07	4.190951941e-08	-1.965543389	26.32646561	6.501851082	1.0
[Pfote2_R]
19	0.9876258373	6.984919754e-09	6.635672634e-08	52.19080353	87.22884369	56.65574646	1.0
20	0.9876258373	6.984919754e-09	6.635672634e-08	30.00663757	85.77262878	34.24409485	1.0
21	0.9876258373	6.984919754e-09	6.635672634e-08	19.2027626	83.7993927	23.21092224	1.0
[EndOfFile]
